{"title":"Eumir Deodato - Deodato 2 (1973)[Flac Cue][TNT]","uid":9796602,"size":312622503,"categoryP":"audio","categoryS":"flac","magnet":"?xt=urn:btih:2fb317a4bebe122e63ef64644e49f17998d767e0&amp;dn=Eumir+Deodato+-+Deodato+2+%281973%29%5BFlac+Cue%5D%5BTNT%5D&amp;tr=udp%3A%2F%2Ftracker.openbittorrent.com%3A80&amp;tr=udp%3A%2F%2Fopen.demonii.com%3A1337&amp;tr=udp%3A%2F%2Ftracker.coppersurfer.tk%3A6969&amp;tr=udp%3A%2F%2Fexodus.desync.com%3A6969","seeders":2,"leechers":1,"uploader":"kaimanov","files":16,"time":1395326703,"description":"Eumir Deodato\n\nDeodato 2 \n\n(1973)\n\n\n[IMG]http://i.imgur.com/0COg9Ws.jpg[/IMG]\n\n\nTitle: Deodato 2\nYear: 1973  \nRelease Date: Reissue 2001                                  \nGenere: Jazz Fusion\nLabel: Sony Music, Epic, CTI Records\nNumber of Discs: 1 \nNumber of Tracks: 8\nAudio Codec: Flac\nQuality: (see Technical Data and log file for more info)\nPlaytime: 48 min :27 sec\n\n\n[IMG]http://i.imgur.com/2NOuE9t.jpg[/IMG]\n\n\t Eumir Deodato - Deodato 2 - Tracklist\n\n01 &quot;Super Strut&quot; - 8:58\n02 &quot;Rhapsody in Blue&quot; - 8:48\n03 &quot;Nights in White Satin&quot; - 6:01\n04 &quot;Pavane for a Dead Princess&quot; - 4:08\n05 &quot;Skyscrapers&quot; - 6:40\n06 &quot;Latin Flute&quot; (Eumir Deodato) - 4:49 *\n07 &quot;Venus&quot; (Eumir Deodato) - 3:32 *\n08 &quot;Do It Again&quot; (Walter Becker, Donald Fagen) - 5:31 *\n\n* New Digital Mix\n\n\n     Track |   Start  |  Length  | Start sector | End sector \n\n    ---------------------------------------------------------\n\n        1  |  0:00.00 |  8:58.52 |         0    |    40401   \n\n        2  |  8:58.52 |  8:48.15 |     40402    |    80016   \n\n        3  | 17:46.67 |  6:01.03 |     80017    |   107094   \n\n        4  | 23:47.70 |  4:08.17 |    107095    |   125711   \n\n        5  | 27:56.12 |  6:40.48 |    125712    |   155759   \n\n        6  | 34:36.60 |  4:49.07 |    155760    |   177441   \n\n        7  | 39:25.67 |  3:32.48 |    177442    |   193389   \n\n        8  | 42:58.40 |  5:31.12 |    193390    |   218226   \n\n","torrent":{"xt":"urn:btih:2fb317a4bebe122e63ef64644e49f17998d767e0","amp;dn":"Eumir+Deodato+-+Deodato+2+%281973%29%5BFlac+Cue%5D%5BTNT%5D","amp;tr":["udp%3A%2F%2Ftracker.openbittorrent.com%3A80","udp%3A%2F%2Fopen.demonii.com%3A1337","udp%3A%2F%2Ftracker.coppersurfer.tk%3A6969","udp%3A%2F%2Fexodus.desync.com%3A6969"],"infoHash":"2fb317a4bebe122e63ef64644e49f17998d767e0","infoHashBuffer":{"type":"Buffer","data":[47,179,23,164,190,190,18,46,99,239,100,100,78,73,241,121,152,215,103,224]},"announce":[],"urlList":[]}}